<svg width="16" height="14" viewBox="0 0 16 14" fill="none" xmlns="http://www.w3.org/2000/svg">
<path d="M11.1833 2.26084L13.6889 4.71192C13.7944 4.81519 13.7944 4.98366 13.6889 5.08692L7.62222 11.0217L5.04444 11.3016C4.7 11.3396 4.40833 11.0543 4.44722 10.7174L4.73333 8.19562L10.8 2.26084C10.9056 2.15758 11.0778 2.15758 11.1833 2.26084ZM15.6833 1.63856L14.3278 0.312468C13.9056 -0.100575 13.2194 -0.100575 12.7944 0.312468L11.8111 1.27442C11.7056 1.37769 11.7056 1.54616 11.8111 1.64942L14.3167 4.10051C14.4222 4.20377 14.5944 4.20377 14.7 4.10051L15.6833 3.13856C16.1056 2.72279 16.1056 2.0516 15.6833 1.63856ZM10.6667 9.40758V12.1739H1.77778V3.47823H8.16111C8.25 3.47823 8.33333 3.4429 8.39722 3.38312L9.50833 2.29616C9.71944 2.08964 9.56944 1.7391 9.27222 1.7391H1.33333C0.597222 1.7391 0 2.32334 0 3.04345V12.6087C0 13.3288 0.597222 13.913 1.33333 13.913H11.1111C11.8472 13.913 12.4444 13.3288 12.4444 12.6087V8.32062C12.4444 8.02986 12.0861 7.88584 11.875 8.08964L10.7639 9.1766C10.7028 9.2391 10.6667 9.32062 10.6667 9.40758Z" fill="#FF9900"/>
</svg>
