<svg width="16" height="16" viewBox="0 0 16 16" fill="none" xmlns="http://www.w3.org/2000/svg">
<path d="M5.60428 3.58532H7.18503V11.2732C7.18503 11.3732 7.26203 11.455 7.35615 11.455H8.63957C8.73369 11.455 8.8107 11.3732 8.8107 11.2732V3.58532H10.3957C10.539 3.58532 10.6182 3.41033 10.5305 3.29216L8.13476 0.0697542C8.11875 0.0480251 8.0983 0.0304518 8.07495 0.0183663C8.0516 0.00628079 8.02597 0 8 0C7.97403 0 7.9484 0.00628079 7.92505 0.0183663C7.9017 0.0304518 7.88125 0.0480251 7.86524 0.0697542L5.46952 3.28989C5.38182 3.41033 5.46096 3.58532 5.60428 3.58532ZM15.8289 10.5914H14.5455C14.4513 10.5914 14.3743 10.6733 14.3743 10.7732V14.2729H1.62567V10.7732C1.62567 10.6733 1.54866 10.5914 1.45455 10.5914H0.171123C0.0770053 10.5914 0 10.6733 0 10.7732V15.2728C0 15.675 0.305882 16 0.684492 16H15.3155C15.6941 16 16 15.675 16 15.2728V10.7732C16 10.6733 15.923 10.5914 15.8289 10.5914Z" fill="#FF9900"/>
</svg>
